<svg width="76" height="30" viewBox="0 0 76 30" fill="none" xmlns="http://www.w3.org/2000/svg">
<g clip-path="url(#clip0)">
<path fill-rule="evenodd" clip-rule="evenodd" d="M6.75145 5.97507C7.60014 5.49088 8.56852 5.1155 9.60218 4.82172V2.85232H19.9987C20.2598 2.85232 21.3098 3.50516 21.4839 3.63029C22.4359 4.2668 23.0888 5.13182 23.4859 6.20356C24.0082 7.60173 23.9864 9.20662 23.4369 10.5721C23.0017 11.6765 22.2945 12.6612 21.4675 13.4882C21.2771 13.6786 21.0378 13.956 20.8473 14.092C20.5699 14.3205 20.1891 14.6796 19.8626 14.9244L18.7909 15.7187C18.1489 16.1322 17.4961 16.4967 16.8052 16.7687C14.6127 17.6881 12.3495 17.8567 10.07 17.1005C9.55322 16.9264 9.10167 16.7687 8.6338 16.5293C8.53044 16.4749 8.46515 16.4586 8.35635 16.4096C8.25298 16.3552 8.20402 16.3389 8.10065 16.2682C7.99728 16.2192 7.92656 16.1866 7.82319 16.1322C7.45869 15.9254 7.16491 15.735 6.82217 15.5283C6.16389 15.1148 5.56002 14.6306 4.95614 14.1464C4.82013 14.0431 4.19449 13.5262 4.09113 13.3848C4.19449 13.2651 4.38491 13.1454 4.51003 13.0257L4.71677 12.8353C4.80381 12.7809 4.85277 12.732 4.93982 12.6612C5.45665 12.2641 5.95716 11.8506 6.51207 11.4861L8.75349 10.2076C9.13431 10.0553 9.49881 9.89754 9.89596 9.77786C11.4845 9.27735 12.8501 9.15222 14.5257 9.42968C16.0109 9.67449 17.3547 10.3654 18.6549 11.1216C18.9432 11.2957 19.2207 11.4861 19.5145 11.6929C19.6015 11.7473 19.966 12.003 20.0531 12.0574C20.7929 11.5405 21.3642 10.7462 21.794 9.8105C20.8256 9.07061 19.8082 8.42866 18.7039 7.87918C15.0588 6.04579 11.4356 5.9261 7.71983 7.54732C7.42605 7.66701 7.16491 7.80846 6.8929 7.94447C6.32166 8.23824 5.87012 8.5157 5.32064 8.84212C4.80381 9.15766 4.35226 9.5004 3.86807 9.8649C3.64502 10.0336 3.42197 10.2076 3.19347 10.3981C2.79633 10.7082 2.39919 11.04 2.04012 11.3828L1.57226 11.8125C1.45257 11.9159 1.36552 12.0193 1.24584 12.1281C1.03366 12.3511 0.103366 13.1944 0 13.3522C0.0870453 13.4882 1.03366 14.4402 1.22407 14.6306C1.45257 14.8537 1.6593 15.0278 1.86603 15.2508C1.98572 15.3542 2.08909 15.4249 2.19245 15.5446C2.50255 15.8547 2.86705 16.1322 3.20979 16.4096L5.38593 18.0145C6.47399 18.6728 7.54574 19.2767 8.77525 19.6901C8.91126 19.7391 9.06903 19.7772 9.23768 19.8479C9.72187 20.0002 10.2224 20.1199 10.7229 20.2233C12.1428 20.5007 13.7804 20.5007 15.2166 20.245C15.8694 20.1199 16.5277 19.9295 17.1316 19.7228C18.6331 19.2059 20.0313 18.3953 21.2934 17.4433L22.8331 16.1648C23.2628 15.8057 24.2149 14.7503 24.5576 14.2824C24.9221 13.82 25.2322 13.3358 25.526 12.8353C26.2496 11.6221 26.7338 9.8649 26.7338 8.37969C26.7338 7.46028 26.5434 6.14916 26.2006 5.28415C25.9395 4.61499 25.7001 4.06007 25.303 3.47252C25.1615 3.26578 25.0582 3.10801 24.9221 2.93936C24.0898 1.90026 23.0235 1.12229 21.8484 0.534739C21.6416 0.431373 20.7766 0.00158691 20.5536 0.00158691H6.75145V5.97507Z" fill="#00B5D0"/>
<path fill-rule="evenodd" clip-rule="evenodd" d="M24.5741 16.9412C24.9059 17.3547 25.1997 17.7355 25.4554 18.236C26.5979 20.5318 26.2007 22.9201 24.6992 24.9385C24.1116 25.7164 23.3826 26.304 22.5394 26.7882L22.0878 26.9949C21.9681 27.0276 21.6907 27.1473 21.5547 27.1473H9.34114V22.523C8.18779 22.1748 7.23573 21.7613 6.45776 21.2771V29.998H21.9845C22.2293 29.998 23.0072 29.7042 23.214 29.6172C24.3184 29.133 25.1997 28.5509 26.0593 27.6858C26.6631 27.0983 27.2344 26.4237 27.6315 25.6838C27.9253 25.1452 28.0668 24.9548 28.3061 24.3509C29.0678 22.4522 29.2201 20.2598 28.5673 18.2904C28.4965 18.0837 28.4258 17.9096 28.3388 17.7028C28.0668 16.9793 27.909 16.7671 27.5282 16.1306C27.3922 15.8912 26.8753 15.2003 26.6849 14.9881C26.5815 14.8847 26.4564 14.7487 26.3748 14.6127C25.6458 15.9946 25.3901 16.1143 24.5741 16.9412Z" fill="#00B5D0"/>
<path fill-rule="evenodd" clip-rule="evenodd" d="M6.75146 5.97348C7.60016 5.48929 8.56853 5.11391 9.6022 4.82013V2.85073H19.9987C20.2598 2.85073 21.3098 3.50357 21.4839 3.6287C22.4359 4.26522 23.0888 5.13023 23.4859 6.20198C24.0082 7.60014 23.9864 9.20504 23.437 10.5706C23.0017 11.6749 22.2945 12.6596 21.4676 13.4866L21.4131 13.541H25.0963C25.2486 13.2962 25.39 13.0731 25.526 12.8337C26.2496 11.6205 26.7338 9.86332 26.7338 8.37811C26.7338 7.45869 26.5434 6.14757 26.2006 5.28256C25.9395 4.6134 25.7001 4.05849 25.303 3.47093C25.1615 3.2642 25.0582 3.10643 24.9222 2.93778C24.0952 1.89867 23.0235 1.12071 21.8484 0.533152C21.6416 0.429786 20.7766 0 20.5536 0H6.75146V5.97348Z" fill="#00B5D0"/>
<path fill-rule="evenodd" clip-rule="evenodd" d="M24.574 16.9412C24.9058 17.3547 25.1996 17.7355 25.4553 18.236C26.3747 20.102 26.304 22.0007 25.439 23.747H28.5128C29.084 22.0007 29.1547 20.0531 28.5672 18.2904C28.4964 18.0837 28.4257 17.9096 28.3387 17.7028C28.0667 16.9793 27.9089 16.7671 27.5281 16.1306C27.3921 15.8912 26.8752 15.2003 26.6848 14.9881C26.5815 14.8847 26.4563 14.7487 26.3747 14.6127C25.6457 15.9946 25.39 16.1143 24.574 16.9412Z" fill="#00B5D0"/>
<path d="M44.6814 8.12241C45.2962 8.3237 45.7858 8.661 46.1449 9.13431C46.5039 9.60218 46.6834 10.1897 46.6834 10.8915C46.6834 11.8599 46.3135 12.6052 45.5736 13.1275C44.8283 13.6552 43.7457 13.9164 42.3203 13.9164H36.782V2.76913H42.0048C43.3213 2.76913 44.3332 3.02482 45.0459 3.54165C45.7586 4.05848 46.1122 4.76573 46.1122 5.66882C46.1122 6.21829 45.9871 6.70792 45.7314 7.13227C45.4757 7.55661 45.1275 7.88847 44.6814 8.12241ZM38.8494 4.39578V7.46957H41.7817C42.5053 7.46957 43.0602 7.339 43.4464 7.07787C43.8327 6.81673 44.0286 6.43591 44.0286 5.94084C44.0286 5.42945 43.8327 5.04318 43.4464 4.78205C43.0602 4.52635 42.5053 4.39578 41.7817 4.39578H38.8494ZM42.1952 12.2951C43.8001 12.2951 44.5998 11.7565 44.5998 10.6848C44.5998 9.61306 43.8001 9.07447 42.1952 9.07447H38.8494V12.2951H42.1952ZM49.2839 5.41312H51.2751V13.9164H49.2839V5.41312ZM50.2849 4.00952C49.9259 4.00952 49.6212 3.89527 49.3764 3.66678C49.137 3.44373 49.0119 3.15539 49.0119 2.81809C49.0119 2.47535 49.137 2.19245 49.3764 1.96396C49.6212 1.73546 49.9259 1.62122 50.2849 1.62122C50.6494 1.62122 50.9487 1.73002 51.1935 1.94764C51.4383 2.16525 51.5634 2.44271 51.5634 2.76913C51.5634 3.11731 51.4437 3.41652 51.2044 3.6559C50.965 3.88983 50.6603 4.00952 50.2849 4.00952ZM59.2887 5.3152C60.3604 5.3152 61.22 5.63074 61.8674 6.25638C62.5148 6.88201 62.8358 7.81231 62.8358 9.04182V13.9164H60.8446V9.29752C60.8446 8.55763 60.6705 7.99728 60.3224 7.61646C59.9687 7.24108 59.4737 7.0561 58.8263 7.0561C58.0918 7.0561 57.5151 7.27372 57.0908 7.71438C56.6664 8.15505 56.4543 8.79157 56.4543 9.6185V13.9164H54.4631V5.41312H56.3564V6.51207C56.6828 6.12037 57.1017 5.82115 57.5967 5.61986C58.0973 5.41857 58.6576 5.3152 59.2887 5.3152ZM69.1955 5.3152C70.4468 5.3152 71.4043 5.61986 72.068 6.21829C72.7317 6.81673 73.0636 7.71982 73.0636 8.93302V13.9164H71.1867V12.8827C70.9419 13.2526 70.5937 13.5355 70.1421 13.7314C69.6906 13.9327 69.1466 14.0306 68.51 14.0306C67.8735 14.0306 67.3132 13.9218 66.8344 13.7042C66.3611 13.4866 65.9912 13.1819 65.73 12.7957C65.4689 12.4094 65.3383 11.9687 65.3383 11.4791C65.3383 10.7174 65.6212 10.1027 66.1925 9.64026C66.7583 9.17783 67.6559 8.94934 68.8746 8.94934H71.0724V8.81877C71.0724 8.22577 70.8929 7.76879 70.5393 7.45325C70.1857 7.13227 69.658 6.9745 68.9562 6.9745C68.4774 6.9745 68.0095 7.05066 67.5471 7.19755C67.0847 7.34444 66.693 7.55117 66.3774 7.81775L65.594 6.37062C66.0401 6.02788 66.5787 5.76675 67.2044 5.58722C67.83 5.40768 68.4937 5.3152 69.1955 5.3152ZM68.9235 12.578C69.424 12.578 69.8647 12.4638 70.251 12.2353C70.6427 12.0068 70.9147 11.6804 71.0724 11.256V10.2713H69.016C67.8735 10.2713 67.2969 10.6467 67.2969 11.4029C67.2969 11.762 67.4437 12.0503 67.7266 12.2625C68.015 12.4747 68.4121 12.578 68.9235 12.578ZM44.5508 19.7593L40.9058 28.2625H38.8494L35.2043 19.7593H37.2717L39.9157 26.0646L42.6413 19.7593H44.5508ZM46.3679 19.7593H48.3591V28.2625H46.3679V19.7593ZM47.3744 18.3611C47.0099 18.3611 46.7106 18.2469 46.4658 18.0184C46.221 17.7899 46.0959 17.507 46.0959 17.1642C46.0959 16.8269 46.221 16.5386 46.4658 16.3101C46.7106 16.087 47.0099 15.9728 47.3744 15.9728C47.7334 15.9728 48.0381 16.0816 48.2775 16.2992C48.5223 16.5168 48.6474 16.7889 48.6474 17.1153C48.6474 17.4689 48.5277 17.7627 48.2883 18.002C48.049 18.2414 47.7443 18.3611 47.3744 18.3611ZM59.5389 24.0626C59.5389 24.1986 59.5281 24.3944 59.5117 24.6501H52.8365C52.9561 25.2758 53.2608 25.7708 53.7504 26.1408C54.2455 26.5053 54.8603 26.6903 55.5893 26.6903C56.525 26.6903 57.2975 26.3802 57.9014 25.7654L58.9677 26.9895C58.5869 27.4465 58.1027 27.7946 57.5206 28.0231C56.933 28.2571 56.2747 28.3768 55.5457 28.3768C54.61 28.3768 53.7885 28.1918 53.0758 27.8164C52.3631 27.4465 51.8137 26.9296 51.4274 26.2659C51.0411 25.6022 50.8453 24.8514 50.8453 24.0136C50.8453 23.1867 51.0357 22.4359 51.4111 21.7776C51.7865 21.1139 52.3087 20.5916 52.9779 20.2217C53.6471 19.8518 54.4033 19.6668 55.2411 19.6668C56.068 19.6668 56.8079 19.8463 57.4607 20.2163C58.1136 20.5808 58.625 21.0976 58.9895 21.7613C59.3594 22.425 59.5389 23.1921 59.5389 24.0626ZM55.2411 21.2554C54.6046 21.2554 54.066 21.4458 53.6253 21.8212C53.1846 22.202 52.9181 22.7025 52.8201 23.3281H57.6457C57.5587 22.7134 57.303 22.2129 56.8677 21.832C56.4325 21.4458 55.8885 21.2554 55.2411 21.2554ZM75.1364 19.7593L71.9973 28.2625H70.0877L67.8899 22.4033L65.6593 28.2625H63.7498L60.627 19.7593H62.5039L64.7508 26.0374L67.0901 19.7593H68.7657L71.0561 26.0646L73.3683 19.7593H75.1364Z" fill="#2C2C31"/>
</g>
<defs>
<clipPath id="clip0">
<rect width="75.1364" height="30" fill="white"/>
</clipPath>
</defs>
</svg>
